G04*
G04 #@! TF.GenerationSoftware,Altium Limited,Altium Designer,18.0.7 (293)*
G04*
G04 Layer_Color=2752767*
%FSLAX44Y44*%
%MOMM*%
G71*
G01*
G75*
%ADD15C,0.0508*%
D15*
X178308Y255778D02*
Y259842D01*
X182372D01*
Y255778D01*
X178308D01*
X203708D02*
Y259842D01*
X207772D01*
Y255778D01*
X203708D01*
X229108D02*
Y259842D01*
X233172D01*
Y255778D01*
X229108D01*
X254508D02*
Y259842D01*
X258572D01*
Y255778D01*
X254508D01*
X279908D02*
Y259842D01*
X283972D01*
Y255778D01*
X279908D01*
X305308D02*
Y259842D01*
X309372D01*
Y255778D01*
X305308D01*
X330708D02*
Y259842D01*
X334772D01*
Y255778D01*
X330708D01*
X356108D02*
Y259842D01*
X360172D01*
Y255778D01*
X356108D01*
X381508D02*
Y259842D01*
X385572D01*
Y255778D01*
X381508D01*
X406908D02*
Y259842D01*
X410972D01*
Y255778D01*
X406908D01*
X432308D02*
Y259842D01*
X436372D01*
Y255778D01*
X432308D01*
X457708D02*
Y259842D01*
X461772D01*
Y255778D01*
X457708D01*
X483108D02*
Y259842D01*
X487172D01*
Y255778D01*
X483108D01*
X508508D02*
Y259842D01*
X512572D01*
Y255778D01*
X508508D01*
Y179578D02*
Y183642D01*
X512572D01*
Y179578D01*
X508508D01*
X483108D02*
Y183642D01*
X487172D01*
Y179578D01*
X483108D01*
X457708D02*
Y183642D01*
X461772D01*
Y179578D01*
X457708D01*
X432308D02*
Y183642D01*
X436372D01*
Y179578D01*
X432308D01*
X406908D02*
Y183642D01*
X410972D01*
Y179578D01*
X406908D01*
X381508D02*
Y183642D01*
X385572D01*
Y179578D01*
X381508D01*
X356108D02*
Y183642D01*
X360172D01*
Y179578D01*
X356108D01*
X330708D02*
Y183642D01*
X334772D01*
Y179578D01*
X330708D01*
X305308D02*
Y183642D01*
X309372D01*
Y179578D01*
X305308D01*
X279908D02*
Y183642D01*
X283972D01*
Y179578D01*
X279908D01*
X254508D02*
Y183642D01*
X258572D01*
Y179578D01*
X254508D01*
X229108D02*
Y183642D01*
X233172D01*
Y179578D01*
X229108D01*
X203708D02*
Y183642D01*
X207772D01*
Y179578D01*
X203708D01*
X178308D02*
Y183642D01*
X182372D01*
Y179578D01*
X178308D01*
X372348Y136398D02*
Y140462D01*
X376412D01*
Y136398D01*
X372348D01*
X421148D02*
Y140462D01*
X425212D01*
Y136398D01*
X421148D01*
X142748Y53848D02*
Y57912D01*
X146812D01*
Y53848D01*
X142748D01*
Y155448D02*
Y159512D01*
X146812D01*
Y155448D01*
X142748D01*
X178308Y97028D02*
Y101092D01*
X182372D01*
Y97028D01*
X178308D01*
Y147828D02*
Y151892D01*
X182372D01*
Y147828D01*
X178308D01*
X472948Y91948D02*
Y96012D01*
X477012D01*
Y91948D01*
X472948D01*
X422148D02*
Y96012D01*
X426212D01*
Y91948D01*
X422148D01*
X324358D02*
Y96012D01*
X328422D01*
Y91948D01*
X324358D01*
X375158D02*
Y96012D01*
X379222D01*
Y91948D01*
X375158D01*
X255778Y324358D02*
Y328422D01*
X259842D01*
Y324358D01*
X255778D01*
X230378D02*
Y328422D01*
X234442D01*
Y324358D01*
X230378D01*
X204978D02*
Y328422D01*
X209042D01*
Y324358D01*
X204978D01*
X179578D02*
Y328422D01*
X183642D01*
Y324358D01*
X179578D01*
X193548Y52578D02*
Y56642D01*
X197612D01*
Y52578D01*
X193548D01*
X218948D02*
Y56642D01*
X223012D01*
Y52578D01*
X218948D01*
X244348D02*
Y56642D01*
X248412D01*
Y52578D01*
X244348D01*
X269748D02*
Y56642D01*
X273812D01*
Y52578D01*
X269748D01*
X295148D02*
Y56642D01*
X299212D01*
Y52578D01*
X295148D01*
X52578Y187598D02*
Y191662D01*
X56642D01*
Y187598D01*
X52578D01*
Y237598D02*
Y241662D01*
X56642D01*
Y237598D01*
X52578D01*
X291338Y90678D02*
Y94742D01*
X295402D01*
Y90678D01*
X291338D01*
Y141478D02*
Y145542D01*
X295402D01*
Y141478D01*
X291338D01*
X509778Y99568D02*
Y103632D01*
X513842D01*
Y99568D01*
X509778D01*
Y124968D02*
Y129032D01*
X513842D01*
Y124968D01*
X509778D01*
X302768Y323088D02*
Y327152D01*
X306832D01*
Y323088D01*
X302768D01*
X328168D02*
Y327152D01*
X332232D01*
Y323088D01*
X328168D01*
X353568D02*
Y327152D01*
X357632D01*
Y323088D01*
X353568D01*
X378968D02*
Y327152D01*
X383032D01*
Y323088D01*
X378968D01*
M02*
