G04*
G04 #@! TF.GenerationSoftware,Altium Limited,Altium Designer,18.0.7 (293)*
G04*
G04 Layer_Physical_Order=2*
G04 Layer_Color=16711680*
%FSLAX44Y44*%
%MOMM*%
G71*
G01*
G75*
%ADD10C,1.0000*%
%ADD11C,2.0000*%
%ADD12R,2.0000X2.0000*%
%ADD13C,3.7500*%
%ADD14R,2.0000X2.0000*%
D10*
X61587Y72390D02*
X55237Y78740D01*
X203827Y72390D02*
X61587D01*
X203827D02*
Y93980D01*
X349877Y257810D02*
Y325120D01*
X348607Y326390D01*
X475607Y73660D02*
Y189630D01*
Y73660D02*
X457827Y55880D01*
X385437D01*
Y39370D02*
Y55880D01*
Y39370D02*
X379087Y33020D01*
X263517D01*
X258437Y38100D01*
Y54610D01*
X200017Y297180D02*
Y325120D01*
X201287Y295910D02*
X200017Y297180D01*
X230497Y295910D02*
X201287D01*
X248277Y278130D02*
X230497Y295910D01*
X248277Y257810D02*
Y278130D01*
X174617Y285750D02*
Y325120D01*
X182237Y278130D02*
X174617Y285750D01*
X213987Y278130D02*
X182237D01*
X222877Y269240D02*
X213987Y278130D01*
X222877Y257810D02*
Y269240D01*
X149217Y260350D02*
X146677Y257810D01*
X149217Y260350D02*
Y325120D01*
Y347980D01*
X153027Y351790D02*
X149217Y347980D01*
X297807Y351790D02*
X153027D01*
X297807Y326390D02*
Y351790D01*
X226687Y326390D02*
X225417Y325120D01*
X272407Y326390D02*
X226687D01*
X323207Y259080D02*
Y326390D01*
X324477Y257810D02*
X323207Y259080D01*
X19677Y181610D02*
X18407Y180340D01*
Y127000D02*
Y180340D01*
X55237Y93980D02*
X47617Y101600D01*
X18407D01*
X299077Y132080D02*
Y181610D01*
Y132080D02*
X283837Y116840D01*
Y54610D02*
Y116840D01*
X324477Y123190D02*
Y181610D01*
Y123190D02*
X309237Y107950D01*
Y54610D02*
Y107950D01*
X352417Y96520D02*
X349877Y99060D01*
X352417Y54610D02*
Y96520D01*
Y54610D02*
X334637D01*
X236847Y133350D02*
Y143510D01*
X258437Y111760D02*
X236847Y133350D01*
X258437Y54610D02*
Y111760D01*
X236847Y92710D02*
X233037Y88900D01*
Y54610D02*
Y88900D01*
X146677Y219710D02*
Y257810D01*
X155567Y210820D02*
X146677Y219710D01*
X175887Y210820D02*
X155567D01*
X197477Y189230D02*
X175887Y210820D01*
X197477Y181610D02*
Y189230D01*
Y170180D02*
Y181610D01*
X224147Y143510D02*
X197477Y170180D01*
X236847Y143510D02*
X224147D01*
X236847Y92710D02*
X235577Y93980D01*
X203827D01*
X349877Y163830D02*
Y181610D01*
X356227Y157480D02*
X349877Y163830D01*
X385437Y157480D02*
X356227D01*
X172077Y165100D02*
Y181610D01*
X179697Y157480D02*
X172077Y165100D01*
X179697Y93980D02*
Y157480D01*
X203827Y93980D02*
X179697D01*
X55237Y78740D02*
Y93980D01*
X107037Y138430D02*
X106037Y137430D01*
Y93980D02*
Y137430D01*
X155837Y138430D02*
X153027Y135620D01*
Y93980D02*
Y135620D01*
X121277Y181610D02*
X113657Y173990D01*
Y145050D02*
Y173990D01*
Y145050D02*
X107037Y138430D01*
X155837Y172450D02*
X146677Y181610D01*
X155837Y138430D02*
Y172450D01*
D11*
X349877Y257810D02*
D03*
X324477D02*
D03*
X299077D02*
D03*
X273677D02*
D03*
X248277D02*
D03*
X222877D02*
D03*
X197477D02*
D03*
X172077D02*
D03*
X146677D02*
D03*
X121277D02*
D03*
X95877D02*
D03*
X70477D02*
D03*
X45077D02*
D03*
X19677D02*
D03*
Y181610D02*
D03*
X45077D02*
D03*
X70477D02*
D03*
X95877D02*
D03*
X121277D02*
D03*
X146677D02*
D03*
X172077D02*
D03*
X197477D02*
D03*
X222877D02*
D03*
X248277D02*
D03*
X273677D02*
D03*
X299077D02*
D03*
X324477D02*
D03*
X349877D02*
D03*
X155837Y138430D02*
D03*
X107037D02*
D03*
X385437Y55880D02*
D03*
Y157480D02*
D03*
X349877Y99060D02*
D03*
Y149860D02*
D03*
X55237Y93980D02*
D03*
X106037D02*
D03*
X203827D02*
D03*
X153027D02*
D03*
X297807Y326390D02*
D03*
X323207D02*
D03*
X348607D02*
D03*
X334637Y54610D02*
D03*
X309237D02*
D03*
X283837D02*
D03*
X258437D02*
D03*
X236847Y92710D02*
D03*
Y143510D02*
D03*
X18407Y127000D02*
D03*
X200017Y325120D02*
D03*
X174617D02*
D03*
X149217D02*
D03*
D12*
X272407Y326390D02*
D03*
X233037Y54610D02*
D03*
X225417Y325120D02*
D03*
D13*
X475607Y189630D02*
D03*
Y239630D02*
D03*
D14*
X18407Y101600D02*
D03*
M02*
